<svg xmlns="http://www.w3.org/2000/svg" xmlns:xlink="http://www.w3.org/1999/xlink" id="Layer_1" data-name="Layer 1" viewBox="0 0 510.36 386.65"><defs><style>.cls-1{fill:url(#linear-gradient);}.cls-2{fill:url(#linear-gradient-2);}.cls-3{fill:url(#linear-gradient-3);}.cls-4{fill:url(#linear-gradient-4);}.cls-5{fill:url(#linear-gradient-5);}.cls-6{fill:url(#linear-gradient-6);}.cls-7{fill:url(#linear-gradient-7);}.cls-8{fill:url(#linear-gradient-8);}.cls-9{fill:url(#linear-gradient-9);}.cls-10{fill:url(#linear-gradient-10);}.cls-11{fill:url(#linear-gradient-11);}.cls-12{fill:url(#linear-gradient-12);}.cls-13{fill:url(#linear-gradient-13);}.cls-14{fill:url(#linear-gradient-14);}.cls-15{fill:url(#linear-gradient-15);}.cls-16{fill:url(#linear-gradient-16);}.cls-17{fill:url(#linear-gradient-17);}.cls-18{fill:url(#linear-gradient-18);}.cls-19{fill:url(#linear-gradient-19);}.cls-20{fill:url(#linear-gradient-20);}.cls-21{fill:url(#linear-gradient-21);}.cls-22{fill:url(#linear-gradient-22);}.cls-23{fill:url(#linear-gradient-23);}</style><linearGradient id="linear-gradient" x1="311.33" y1="425.03" x2="706.96" y2="425.03" gradientUnits="userSpaceOnUse"><stop offset="0" stop-color="#131fff"/><stop offset="1" stop-color="#03e5ff"/></linearGradient><linearGradient id="linear-gradient-2" x1="273.82" y1="350.4" x2="330.09" y2="350.4" xlink:href="#linear-gradient"/><linearGradient id="linear-gradient-3" x1="336.48" y1="278.98" x2="381.1" y2="278.98" xlink:href="#linear-gradient"/><linearGradient id="linear-gradient-4" x1="320.01" y1="314.69" x2="350.26" y2="314.69" xlink:href="#linear-gradient"/><linearGradient id="linear-gradient-5" x1="0" y1="227.09" x2="99.71" y2="227.09" xlink:href="#linear-gradient"/><linearGradient id="linear-gradient-6" x1="40.34" y1="191.86" x2="98.23" y2="191.86" xlink:href="#linear-gradient"/><linearGradient id="linear-gradient-7" x1="54.68" y1="155.54" x2="112.58" y2="155.54" xlink:href="#linear-gradient"/><linearGradient id="linear-gradient-8" x1="76.41" y1="81.67" x2="134.3" y2="81.67" xlink:href="#linear-gradient"/><linearGradient id="linear-gradient-9" x1="71.15" y1="264.55" x2="110.47" y2="264.55" xlink:href="#linear-gradient"/><linearGradient id="linear-gradient-10" x1="71.15" y1="300.89" x2="130.13" y2="300.89" xlink:href="#linear-gradient"/><linearGradient id="linear-gradient-11" x1="311.33" y1="462.33" x2="706.96" y2="462.33" xlink:href="#linear-gradient"/><linearGradient id="linear-gradient-12" x1="147.14" y1="337.47" x2="249.04" y2="337.47" gradientUnits="userSpaceOnUse"><stop offset="0" stop-color="#104bf8"/><stop offset="1" stop-color="#0f4cff"/></linearGradient><linearGradient id="linear-gradient-13" x1="143.04" y1="302.72" x2="244.94" y2="302.72" xlink:href="#linear-gradient-12"/><linearGradient id="linear-gradient-14" x1="127.18" y1="266.37" x2="229.08" y2="266.37" xlink:href="#linear-gradient-12"/><linearGradient id="linear-gradient-15" x1="116.84" y1="155.54" x2="201.35" y2="155.54" xlink:href="#linear-gradient-12"/><linearGradient id="linear-gradient-16" x1="139.88" y1="84.79" x2="224.39" y2="84.79" xlink:href="#linear-gradient-12"/><linearGradient id="linear-gradient-17" x1="166.62" y1="47.31" x2="251.14" y2="47.31" xlink:href="#linear-gradient-12"/><linearGradient id="linear-gradient-18" x1="197.09" y1="11.19" x2="281.6" y2="11.19" xlink:href="#linear-gradient-12"/><linearGradient id="linear-gradient-19" x1="105.36" y1="372.63" x2="164.34" y2="372.63" xlink:href="#linear-gradient"/><linearGradient id="linear-gradient-20" x1="29.14" y1="262.67" x2="61.61" y2="262.67" xlink:href="#linear-gradient"/><linearGradient id="linear-gradient-21" x1="112.58" y1="117.69" x2="197.09" y2="117.69" xlink:href="#linear-gradient-12"/><linearGradient id="linear-gradient-22" x1="112.58" y1="191.86" x2="197.09" y2="191.86" xlink:href="#linear-gradient-12"/><linearGradient id="linear-gradient-23" x1="112.58" y1="227.09" x2="197.09" y2="227.09" xlink:href="#linear-gradient-12"/></defs><path class="cls-1" d="M329,417.66a12.88,12.88,0,0,0-2.87,8.39c0,.93.16,5,2.8,7.17s5.33.7,13.63.65h.21a15.71,15.71,0,0,1-11.67-14.78,13.25,13.25,0,0,1,.33-3.46A9.77,9.77,0,0,0,329,417.66Z" transform="translate(-196.6 -268.73)"/><path class="cls-2" d="M301.71,342c6.24,0,12.67-1,18.64.35,3.61.79,6.52,5.09,9.74,7.82-2.94,2.92-5.74,8.14-8.86,8.36a285.36,285.36,0,0,1-39.34-.06c-2.84-.19-5.39-5.18-8.07-8,2.73-2.82,5.13-7.45,8.26-8.08,6.33-1.27,13.06-.38,19.63-.38Z" transform="translate(-196.6 -268.73)"/><path class="cls-3" d="M344.94,289.13c.44.06.89.06,1.33.09h25c.44,0,.89,0,1.33-.09a9.27,9.27,0,0,0,2.57-.76,10.55,10.55,0,0,0,5.7-11.48,10.24,10.24,0,0,0-7-7.78c-.43-.12-.87-.19-1.31-.28l-1.33-.1h-25a10,10,0,0,0-2.65.38,9.6,9.6,0,0,0-2.44,1.11,10.66,10.66,0,0,0-4.51,10.84A10.19,10.19,0,0,0,344.94,289.13Z" transform="translate(-196.6 -268.73)"/><path class="cls-4" d="M325.74,324.84a9,9,0,0,0,.91.09h17c.3,0,.61,0,.91-.09a5.11,5.11,0,0,0,1.74-.75c2.89-1.94,4.47-7,3.86-11.49-.5-3.71-2.39-6.77-4.71-7.78-.3-.12-.6-.19-.89-.28l-.91-.1h-17a4.73,4.73,0,0,0-1.8.38,6,6,0,0,0-1.66,1.12c-2.35,2.2-3.61,6.73-3.05,10.83S323.05,324.27,325.74,324.84Z" transform="translate(-196.6 -268.73)"/><rect class="cls-5" y="218.26" width="99.71" height="17.65" rx="8.83"/><rect class="cls-6" x="40.34" y="183.03" width="57.89" height="17.65" rx="8.83"/><rect class="cls-7" x="54.68" y="146.72" width="57.89" height="17.65" rx="8.83"/><rect class="cls-8" x="76.41" y="72.84" width="57.89" height="17.65" rx="8.83"/><rect class="cls-9" x="71.15" y="255.72" width="39.32" height="17.65" rx="8.83"/><rect class="cls-10" x="71.15" y="292.07" width="58.98" height="17.65" rx="8.83"/><path class="cls-11" d="M690.22,583.09c-11.15-10-12.38-15.81-5.44-29.52,15.69-31,22.84-63.73,22.13-99C705.12,365.69,646.59,289.49,563,272.85c-29.37-5.85-133.51-2.94-155.15-2.2-3.57.12-9.23,4.51-10,7.91-1.61,7,4.12,9.1,9.91,9.29,5.58.18,11.17.23,16.75,0,6.46-.25,11.52,2,11.83,9.24.34,8-5.21,10.16-11.92,10.14-14.12-.05-28.24.15-42.36-.07-6-.09-11,1.36-11.1,8.4a8.49,8.49,0,0,0,1.37,5.17c2.09,3,6.12,3.48,9.67,3.71,15.88,1,20.49-2.36,25.87,1.4.55.38,5,3.61,5.21,8.66a9.7,9.7,0,0,1-2.55,6.91,7.54,7.54,0,0,1-4.17,2.39c-2.44.56-5.34.16-8.29.17q-24.63.09-49.26,0c-2.63,0-6.87.34-9,3.42a9.28,9.28,0,0,0,.09,9.88c.85,1.27,2.42,2.75,8.51,4,8.62,1.74,12.33.18,21.41,2,4.79,1,6.71,2,7.84,3.84a8.29,8.29,0,0,1,0,8.09c-1.89,3.24-5.95,4-9.34,4.36-13.76,1.52-21.93-2.4-37.57-2.62-8.61-.12-11.8,1-14,3.33-3.56,3.74-4.73,10.67-2,14.4,2.32,3.2,6.9,3.23,12.61,3.07,0,0,17.11-.47,51.85-.54,1.93,0,6.2.08,8.76,3a9.68,9.68,0,0,1,2.12,6c.4,7.07-4.39,9.4-10.06,10.17a31.64,31.64,0,0,1-7.88.13c-3.88-.63-7.63-1.25-11.22-1.77a16.93,16.93,0,0,1,.77,4.29c.34,7.72-6.36,14.36-13.77,15.14,4.13.75,7.25,2.94,7.31,9,.09,8.38-6.14,9.73-12.33,10-14.77.59-20.52-3-24.57.6-1.43,1.25-3.07,3.8-2.94,9.61a9.84,9.84,0,0,0,3.12,5.83c4.4,3.66,10.13.54,23.61.35,6.66-.09,12.19,1.83,12.43,9.79a9.79,9.79,0,0,1-1.69,6.4c-2.1,2.75-5.66,3.37-10.41,3.61-15.53.8-20.41-3-25.83.88a12.38,12.38,0,0,0-5,7.47,7.25,7.25,0,0,0,.37,4.55c1.44,2.9,5.34,3.89,9.11,4.21,2.28.19,4.59.05,6.89.05h68c2,0,3.94.08,5.91,0,6.26-.29,10.52,2.73,10.82,9.22.35,7.3-4.43,10.23-10.87,10.25q-32,.12-64,0c-5.93,0-12.11.47-12.33,8.27-.23,8,6.28,8.67,12,8.79,11.16.25,22.33.17,33.5.13,6.35,0,11,3.52,9.95,9.69-.63,3.66-5.6,8-9.43,9.19-5.14,1.61-11.06.54-16.64.54-5.32,0-10.16.76-10.34,7.9-.2,7.76,5,8.7,10.65,8.72,8.87,0,17.74,0,26.6.08,6.43.08,12.33,1.68,12.3,9.91,0,8.49-6.25,9.39-12.53,9.47-17.37.23-23.12-2.94-27.53.66-1.25,1-2.76,2.88-3.54,6.57a15.64,15.64,0,0,1,10.91-4.72c8.31,0,14.51,6.62,15.16,14.59,9.57-.3,24.95-.07,47.83.26,2.15,0,6.87.2,9.44,3.49a9.81,9.81,0,0,1,1.82,6.34c-.05,7.53-5.17,9.57-11.5,9.49-5.25-.07-10.51.06-15.76,0-6.22-.1-12.65,0-12.74,8.8-.09,8.51,6.56,8.18,12.09,8.41,18,.74,36.09,1.2,54.14,1.92,52.09,2.09,103.85,2.24,151.5-25.16,7.11-4.09,14-2.31,20,3.14,5.71,5.18,11.21,10.61,17,15.73,8.37,7.44,15.8,7.27,23.36-1.13,9.24-10.25,18.16-20.82,26.93-31.51,7-8.54,6.4-16.75-1.34-24.45C696.32,588.34,693.21,585.78,690.22,583.09Zm-66-97.14c-1.11,15.08-15.64,20.63-26.89,11-9.63-8.27-18.67-17.29-28.11-25.82-8.61-7.77-16.37-7.34-23.91,1.33q-12.9,14.86-25.5,30c-8.68,10.43-8.22,18.45,1.49,27.43q9.94,9.21,20.16,18.12c5.83,5.12,8.51,11.45,6.27,19.18-2.37,8.21-8.45,11.62-16.29,12.56-63.41,7.61-118.18-40.15-122.64-107-.25-3.77-.55-7.53-.82-11.3-1.36-62.47,40.57-113,98.92-119.13,55.63-5.86,107.5,35.86,117,95.62C626.34,453.52,625.4,470,624.22,486Z" transform="translate(-196.6 -268.73)"/><rect class="cls-12" x="147.14" y="326.82" width="101.9" height="21.3" rx="10.65"/><rect class="cls-13" x="143.04" y="292.07" width="101.9" height="21.3" rx="10.65"/><rect class="cls-14" x="127.18" y="255.72" width="101.9" height="21.3" rx="10.65"/><rect class="cls-15" x="116.84" y="144.89" width="84.51" height="21.3" rx="10.65"/><rect class="cls-16" x="139.88" y="74.14" width="84.51" height="21.3" rx="10.65"/><rect class="cls-17" x="166.62" y="36.66" width="84.51" height="21.3" rx="10.65"/><rect class="cls-18" x="197.09" y="0.54" width="84.51" height="21.3" rx="10.65"/><rect class="cls-19" x="105.36" y="363.81" width="58.98" height="17.65" rx="8.83"/><rect class="cls-20" x="29.14" y="253.85" width="32.48" height="17.65" rx="8.83"/><rect class="cls-21" x="112.58" y="107.04" width="84.51" height="21.3" rx="10.65"/><rect class="cls-22" x="112.58" y="181.21" width="84.51" height="21.3" rx="10.65"/><rect class="cls-23" x="112.58" y="216.43" width="84.51" height="21.3" rx="10.65"/></svg>