<svg width="100" height="98" viewBox="0 0 100 98" fill="none" xmlns="http://www.w3.org/2000/svg">
<path d="M17.7067 0.000488281H82.2933C92.0827 0.000488281 100 7.91781 100 17.7072V79.7977C100 89.5871 92.0827 97.5044 82.2933 97.5044H17.7067C7.91732 97.5044 0 89.5871 0 79.7977V17.7072C0 7.91781 7.91732 0.000488281 17.7067 0.000488281Z" fill="#001E36"/>
<path d="M52.4961 68.9162H26.092C25.624 68.9162 25.429 68.6822 25.429 68.1752V25.5855C25.39 25.3125 25.585 25.0395 25.897 25.0005C25.936 25.0005 25.975 25.0005 26.053 25.0005H34.2044C34.3994 24.9615 34.6724 25.1175 34.6724 25.3515C34.6724 25.3905 34.6724 25.4295 34.6724 25.4685V60.4529H53.9392C54.3682 60.4529 54.4852 60.6479 54.4072 61.0379L53.1981 68.2922C53.1981 68.4872 53.0811 68.6822 52.9641 68.7992C52.8081 68.8772 52.6521 68.9162 52.4961 68.9162Z" fill="#31A8FF"/>
<path d="M59.1654 35.5699H66.4587C66.8877 35.5699 67.1997 35.8429 67.3167 36.2329C67.4727 36.5059 67.5897 36.8569 67.6677 37.208C67.7457 37.637 67.8237 38.066 67.8627 38.495C67.9017 38.963 67.9407 39.47 67.9407 39.9771C69.1888 38.534 70.7098 37.325 72.3869 36.3889C74.298 35.3359 76.4431 34.8289 78.5881 34.9069C78.8612 34.8679 79.1342 35.0629 79.1732 35.3749C79.1732 35.4139 79.1732 35.4529 79.1732 35.5309V43.6822C79.1732 44.0332 78.9782 44.1502 78.5101 44.1502C75.819 43.9942 73.0889 44.5012 70.6318 45.5543C69.8128 45.9443 68.9938 46.4123 68.3697 47.1143V68.3702C68.3697 68.7992 68.2137 68.9552 67.8237 68.9552H59.7114C59.3604 68.9942 59.0874 68.7992 59.0484 68.4482C59.0484 68.4092 59.0484 68.3312 59.0484 68.2922V45.2033C59.0484 44.1892 59.0484 43.1752 59.0094 42.0831C58.9704 40.9911 58.9704 39.8991 58.9314 38.846C58.8924 37.91 58.8144 37.0129 58.6973 36.0769C58.6583 35.8819 58.7753 35.6479 58.9704 35.6089C59.0484 35.5309 59.0874 35.5309 59.1654 35.5699Z" fill="#31A8FF"/>
</svg>
