<svg width="113" height="120" viewBox="0 0 113 120" fill="none" xmlns="http://www.w3.org/2000/svg">
<g filter="url(#filter0_d_790_3502)">
<path d="M9 0.000488281H109V100H9V0.000488281Z" fill="#017ACB"/>
<path d="M57.0157 37.0317H61.8126V45.313H48.8438V82.1567L48.5 82.2505C48.0313 82.3755 41.8594 82.3755 40.5313 82.2349L39.4688 82.1411V45.313H26.5V37.0317L30.6094 36.9849C32.8594 36.9536 38.6406 36.9536 43.4532 36.9849C48.2657 37.0161 54.3594 37.0317 57.0157 37.0317ZM93.6251 78.2505C91.7189 80.2661 89.672 81.3911 86.2657 82.313C84.7813 82.7192 84.5313 82.7349 81.1876 82.7192C77.8438 82.7036 77.5782 82.7036 75.9532 82.2817C71.7501 81.2036 68.3594 79.0942 66.0469 76.1099C65.3907 75.2661 64.3126 73.5161 64.3126 73.2974C64.3126 73.2349 64.4688 73.0942 64.6719 73.0005C64.8751 72.9067 65.2969 72.6411 65.6407 72.438C65.9844 72.2349 66.6094 71.8599 67.0313 71.6411C67.4532 71.4224 68.6719 70.7036 69.7345 70.063C70.797 69.4224 71.7657 68.9067 71.8751 68.9067C71.9845 68.9067 72.1876 69.1255 72.3438 69.3911C73.2813 70.9692 75.4688 72.9849 77.0157 73.6724C77.9688 74.0786 80.0782 74.5317 81.0938 74.5317C82.0313 74.5317 83.7501 74.1255 84.672 73.7036C85.6563 73.2505 86.1564 72.7974 86.7501 71.8911C87.1564 71.2505 87.2032 71.0786 87.1876 69.8599C87.1876 68.7349 87.1251 68.4224 86.8126 67.9067C85.9376 66.4692 84.7501 65.7192 79.9376 63.5942C74.9688 61.3911 72.7345 60.0786 70.9219 58.313C69.5782 57.0005 69.3126 56.6411 68.4688 55.0005C67.3751 52.8911 67.2344 52.2036 67.2188 49.063C67.2032 46.8599 67.2501 46.1411 67.4844 45.3911C67.8126 44.2661 68.8751 42.0942 69.3594 41.5474C70.3594 40.3755 70.7188 40.0161 71.422 39.438C73.547 37.688 76.8595 36.5317 80.0313 36.4224C80.3907 36.4224 81.5782 36.4849 82.6876 36.563C85.8751 36.8286 88.047 37.6099 90.1407 39.2817C91.7189 40.5317 94.1095 43.4692 93.8751 43.8599C93.7189 44.0942 87.4845 48.2505 87.0782 48.3755C86.8282 48.4536 86.6564 48.3599 86.3126 47.9536C84.1876 45.4067 83.3282 44.8599 81.2657 44.7349C79.797 44.6411 79.0157 44.813 78.0313 45.4692C77.0001 46.1567 76.5001 47.2036 76.5001 48.6567C76.5157 50.7817 77.3282 51.7817 80.3282 53.2661C82.2657 54.2192 83.922 55.0005 84.047 55.0005C84.2345 55.0005 88.2501 57.0005 89.297 57.6255C94.172 60.4849 96.1564 63.4224 96.672 68.4849C97.047 72.2974 95.9689 75.7817 93.6251 78.2505Z" fill="white"/>
</g>
<defs>
<filter id="filter0_d_790_3502" x="0" y="0.000488281" width="113" height="120" filterUnits="userSpaceOnUse" color-interpolation-filters="sRGB">
<feFlood flood-opacity="0" result="BackgroundImageFix"/>
<feColorMatrix in="SourceAlpha" type="matrix" values="0 0 0 0 0 0 0 0 0 0 0 0 0 0 0 0 0 0 127 0" result="hardAlpha"/>
<feOffset dy="4"/>
<feGaussianBlur stdDeviation="2"/>
<feComposite in2="hardAlpha" operator="out"/>
<feColorMatrix type="matrix" values="0 0 0 0 0 0 0 0 0 0 0 0 0 0 0 0 0 0 0.25 0"/>
<feBlend mode="normal" in2="BackgroundImageFix" result="effect1_dropShadow_790_3502"/>
<feBlend mode="normal" in="SourceGraphic" in2="effect1_dropShadow_790_3502" result="shape"/>
</filter>
</defs>
</svg>
